<?xml version="1.0" standalone="no"?>
 <!DOCTYPE svg PUBLIC "-//W3C//DTD SVG 1.1//EN" 
 "http://www.w3.org/Graphics/SVG/1.1/DTD/svg11.dtd"> 
<svg xmlns="http://www.w3.org/2000/svg" version="1.1" 
    width="29.7002cm" height="21.0007cm" viewBox="0 0 116930 82680 ">
<title>SVG Picture created as 8Bit_EuroRack_7hp-F_SilkS.svg date 2019/08/13 20:23:47 </title>
  <desc>Picture generated by PCBNEW </desc>
<g style="fill:#000000; fill-opacity:1;stroke:#000000; stroke-opacity:1;
stroke-linecap:round; stroke-linejoin:round; "
 transform="translate(0 0) scale(1 1)">
</g>
<g style="fill:#000000; fill-opacity:0.0; 
stroke:#000000; stroke-width:-0.000393701; stroke-opacity:1; 
stroke-linecap:round; stroke-linejoin:round;">
</g>
<g style="fill:#000000; fill-opacity:0.0; 
stroke:#000000; stroke-width:39.3701; stroke-opacity:1; 
stroke-linecap:round; stroke-linejoin:round;">
</g>
<g style="fill:#000000; fill-opacity:0.0; 
stroke:#000000; stroke-width:59.0551; stroke-opacity:1; 
stroke-linecap:round; stroke-linejoin:round;">
<rect x="69685.9" y="65357.2" width="42519.7" height="12598.4" rx="0" />
</g>
<g style="fill:#000000; fill-opacity:0.0; 
stroke:#000000; stroke-width:39.3701; stroke-opacity:1; 
stroke-linecap:round; stroke-linejoin:round;">
</g>
<g style="fill:#000000; fill-opacity:0.0; 
stroke:#000000; stroke-width:59.0551; stroke-opacity:1; 
stroke-linecap:round; stroke-linejoin:round;">
<rect x="3937.01" y="3937.01" width="109056" height="74806" rx="0" />
</g>
<g style="fill:#000000; fill-opacity:0.0; 
stroke:#000000; stroke-width:39.3701; stroke-opacity:1; 
stroke-linecap:round; stroke-linejoin:round;">
</g>
<g style="fill:#000000; fill-opacity:0.0; 
stroke:#000000; stroke-width:59.0551; stroke-opacity:1; 
stroke-linecap:round; stroke-linejoin:round;">
<rect x="4724.41" y="4724.41" width="107481" height="73231.2" rx="0" />
</g>
<g style="fill:#000000; fill-opacity:0.0; 
stroke:#000000; stroke-width:39.3701; stroke-opacity:1; 
stroke-linecap:round; stroke-linejoin:round;">
</g>
<g style="fill:#000000; fill-opacity:0.0; 
stroke:#000000; stroke-width:59.0551; stroke-opacity:1; 
stroke-linecap:round; stroke-linejoin:round;">
<path d="M23622 4724
L23622 3937
" />
</g>
<g style="fill:#000000; fill-opacity:0.0; 
stroke:#000000; stroke-width:39.3701; stroke-opacity:1; 
stroke-linecap:round; stroke-linejoin:round;">
</g>
<g style="fill:#000000; fill-opacity:0.0; 
stroke:#000000; stroke-width:59.0551; stroke-opacity:1; 
stroke-linecap:round; stroke-linejoin:round;">
<path d="M43307 4724
L43307 3937
" />
</g>
<g style="fill:#000000; fill-opacity:0.0; 
stroke:#000000; stroke-width:39.3701; stroke-opacity:1; 
stroke-linecap:round; stroke-linejoin:round;">
</g>
<g style="fill:#000000; fill-opacity:0.0; 
stroke:#000000; stroke-width:59.0551; stroke-opacity:1; 
stroke-linecap:round; stroke-linejoin:round;">
<path d="M62992 4724
L62992 3937
" />
</g>
<g style="fill:#000000; fill-opacity:0.0; 
stroke:#000000; stroke-width:39.3701; stroke-opacity:1; 
stroke-linecap:round; stroke-linejoin:round;">
</g>
<g style="fill:#000000; fill-opacity:0.0; 
stroke:#000000; stroke-width:59.0551; stroke-opacity:1; 
stroke-linecap:round; stroke-linejoin:round;">
<path d="M82677 4724
L82677 3937
" />
</g>
<g style="fill:#000000; fill-opacity:0.0; 
stroke:#000000; stroke-width:39.3701; stroke-opacity:1; 
stroke-linecap:round; stroke-linejoin:round;">
</g>
<g style="fill:#000000; fill-opacity:0.0; 
stroke:#000000; stroke-width:59.0551; stroke-opacity:1; 
stroke-linecap:round; stroke-linejoin:round;">
<path d="M102362 4724
L102362 3937
" />
</g>
<g style="fill:#000000; fill-opacity:0.0; 
stroke:#000000; stroke-width:39.3701; stroke-opacity:1; 
stroke-linecap:round; stroke-linejoin:round;">
</g>
<g style="fill:#000000; fill-opacity:0.0; 
stroke:#000000; stroke-width:59.0551; stroke-opacity:1; 
stroke-linecap:round; stroke-linejoin:round;">
<path d="M14199 4562
L13906 4562
" />
<path d="M14052 4562
L14052 4050
L14004 4123
L13955 4172
L13906 4196
" />
</g>
<g style="fill:#000000; fill-opacity:0.0; 
stroke:#000000; stroke-width:39.3701; stroke-opacity:1; 
stroke-linecap:round; stroke-linejoin:round;">
</g>
<g style="fill:#000000; fill-opacity:0.0; 
stroke:#000000; stroke-width:59.0551; stroke-opacity:1; 
stroke-linecap:round; stroke-linejoin:round;">
<path d="M33591 4099
L33615 4074
L33664 4050
L33786 4050
L33835 4074
L33859 4099
L33884 4147
L33884 4196
L33859 4269
L33567 4562
L33884 4562
" />
</g>
<g style="fill:#000000; fill-opacity:0.0; 
stroke:#000000; stroke-width:39.3701; stroke-opacity:1; 
stroke-linecap:round; stroke-linejoin:round;">
</g>
<g style="fill:#000000; fill-opacity:0.0; 
stroke:#000000; stroke-width:59.0551; stroke-opacity:1; 
stroke-linecap:round; stroke-linejoin:round;">
<path d="M53252 4050
L53569 4050
L53398 4245
L53471 4245
L53520 4269
L53544 4294
L53569 4342
L53569 4464
L53544 4513
L53520 4537
L53471 4562
L53325 4562
L53276 4537
L53252 4513
" />
</g>
<g style="fill:#000000; fill-opacity:0.0; 
stroke:#000000; stroke-width:39.3701; stroke-opacity:1; 
stroke-linecap:round; stroke-linejoin:round;">
</g>
<g style="fill:#000000; fill-opacity:0.0; 
stroke:#000000; stroke-width:59.0551; stroke-opacity:1; 
stroke-linecap:round; stroke-linejoin:round;">
<path d="M73205 4221
L73205 4562
" />
<path d="M73083 4026
L72961 4391
L73278 4391
" />
</g>
<g style="fill:#000000; fill-opacity:0.0; 
stroke:#000000; stroke-width:39.3701; stroke-opacity:1; 
stroke-linecap:round; stroke-linejoin:round;">
</g>
<g style="fill:#000000; fill-opacity:0.0; 
stroke:#000000; stroke-width:59.0551; stroke-opacity:1; 
stroke-linecap:round; stroke-linejoin:round;">
<path d="M92914 4050
L92671 4050
L92646 4294
L92671 4269
L92719 4245
L92841 4245
L92890 4269
L92914 4294
L92939 4342
L92939 4464
L92914 4513
L92890 4537
L92841 4562
L92719 4562
L92671 4537
L92646 4513
" />
</g>
<g style="fill:#000000; fill-opacity:0.0; 
stroke:#000000; stroke-width:39.3701; stroke-opacity:1; 
stroke-linecap:round; stroke-linejoin:round;">
</g>
<g style="fill:#000000; fill-opacity:0.0; 
stroke:#000000; stroke-width:59.0551; stroke-opacity:1; 
stroke-linecap:round; stroke-linejoin:round;">
<path d="M112575 4050
L112477 4050
L112429 4074
L112404 4099
L112356 4172
L112331 4269
L112331 4464
L112356 4513
L112380 4537
L112429 4562
L112526 4562
L112575 4537
L112599 4513
L112624 4464
L112624 4342
L112599 4294
L112575 4269
L112526 4245
L112429 4245
L112380 4269
L112356 4294
L112331 4342
" />
</g>
<g style="fill:#000000; fill-opacity:0.0; 
stroke:#000000; stroke-width:39.3701; stroke-opacity:1; 
stroke-linecap:round; stroke-linejoin:round;">
</g>
<g style="fill:#000000; fill-opacity:0.0; 
stroke:#000000; stroke-width:59.0551; stroke-opacity:1; 
stroke-linecap:round; stroke-linejoin:round;">
<path d="M23622 77955
L23622 78742
" />
</g>
<g style="fill:#000000; fill-opacity:0.0; 
stroke:#000000; stroke-width:39.3701; stroke-opacity:1; 
stroke-linecap:round; stroke-linejoin:round;">
</g>
<g style="fill:#000000; fill-opacity:0.0; 
stroke:#000000; stroke-width:59.0551; stroke-opacity:1; 
stroke-linecap:round; stroke-linejoin:round;">
<path d="M43307 77955
L43307 78742
" />
</g>
<g style="fill:#000000; fill-opacity:0.0; 
stroke:#000000; stroke-width:39.3701; stroke-opacity:1; 
stroke-linecap:round; stroke-linejoin:round;">
</g>
<g style="fill:#000000; fill-opacity:0.0; 
stroke:#000000; stroke-width:59.0551; stroke-opacity:1; 
stroke-linecap:round; stroke-linejoin:round;">
<path d="M62992 77955
L62992 78742
" />
</g>
<g style="fill:#000000; fill-opacity:0.0; 
stroke:#000000; stroke-width:39.3701; stroke-opacity:1; 
stroke-linecap:round; stroke-linejoin:round;">
</g>
<g style="fill:#000000; fill-opacity:0.0; 
stroke:#000000; stroke-width:59.0551; stroke-opacity:1; 
stroke-linecap:round; stroke-linejoin:round;">
<path d="M82677 77955
L82677 78742
" />
</g>
<g style="fill:#000000; fill-opacity:0.0; 
stroke:#000000; stroke-width:39.3701; stroke-opacity:1; 
stroke-linecap:round; stroke-linejoin:round;">
</g>
<g style="fill:#000000; fill-opacity:0.0; 
stroke:#000000; stroke-width:59.0551; stroke-opacity:1; 
stroke-linecap:round; stroke-linejoin:round;">
<path d="M102362 77955
L102362 78742
" />
</g>
<g style="fill:#000000; fill-opacity:0.0; 
stroke:#000000; stroke-width:39.3701; stroke-opacity:1; 
stroke-linecap:round; stroke-linejoin:round;">
</g>
<g style="fill:#000000; fill-opacity:0.0; 
stroke:#000000; stroke-width:59.0551; stroke-opacity:1; 
stroke-linecap:round; stroke-linejoin:round;">
<path d="M14199 78580
L13906 78580
" />
<path d="M14052 78580
L14052 78069
L14004 78142
L13955 78190
L13906 78215
" />
</g>
<g style="fill:#000000; fill-opacity:0.0; 
stroke:#000000; stroke-width:39.3701; stroke-opacity:1; 
stroke-linecap:round; stroke-linejoin:round;">
</g>
<g style="fill:#000000; fill-opacity:0.0; 
stroke:#000000; stroke-width:59.0551; stroke-opacity:1; 
stroke-linecap:round; stroke-linejoin:round;">
<path d="M33591 78117
L33615 78093
L33664 78069
L33786 78069
L33835 78093
L33859 78117
L33884 78166
L33884 78215
L33859 78288
L33567 78580
L33884 78580
" />
</g>
<g style="fill:#000000; fill-opacity:0.0; 
stroke:#000000; stroke-width:39.3701; stroke-opacity:1; 
stroke-linecap:round; stroke-linejoin:round;">
</g>
<g style="fill:#000000; fill-opacity:0.0; 
stroke:#000000; stroke-width:59.0551; stroke-opacity:1; 
stroke-linecap:round; stroke-linejoin:round;">
<path d="M53252 78069
L53569 78069
L53398 78263
L53471 78263
L53520 78288
L53544 78312
L53569 78361
L53569 78483
L53544 78532
L53520 78556
L53471 78580
L53325 78580
L53276 78556
L53252 78532
" />
</g>
<g style="fill:#000000; fill-opacity:0.0; 
stroke:#000000; stroke-width:39.3701; stroke-opacity:1; 
stroke-linecap:round; stroke-linejoin:round;">
</g>
<g style="fill:#000000; fill-opacity:0.0; 
stroke:#000000; stroke-width:59.0551; stroke-opacity:1; 
stroke-linecap:round; stroke-linejoin:round;">
<path d="M73205 78239
L73205 78580
" />
<path d="M73083 78044
L72961 78410
L73278 78410
" />
</g>
<g style="fill:#000000; fill-opacity:0.0; 
stroke:#000000; stroke-width:39.3701; stroke-opacity:1; 
stroke-linecap:round; stroke-linejoin:round;">
</g>
<g style="fill:#000000; fill-opacity:0.0; 
stroke:#000000; stroke-width:59.0551; stroke-opacity:1; 
stroke-linecap:round; stroke-linejoin:round;">
<path d="M92914 78069
L92671 78069
L92646 78312
L92671 78288
L92719 78263
L92841 78263
L92890 78288
L92914 78312
L92939 78361
L92939 78483
L92914 78532
L92890 78556
L92841 78580
L92719 78580
L92671 78556
L92646 78532
" />
</g>
<g style="fill:#000000; fill-opacity:0.0; 
stroke:#000000; stroke-width:39.3701; stroke-opacity:1; 
stroke-linecap:round; stroke-linejoin:round;">
</g>
<g style="fill:#000000; fill-opacity:0.0; 
stroke:#000000; stroke-width:59.0551; stroke-opacity:1; 
stroke-linecap:round; stroke-linejoin:round;">
<path d="M112575 78069
L112477 78069
L112429 78093
L112404 78117
L112356 78190
L112331 78288
L112331 78483
L112356 78532
L112380 78556
L112429 78580
L112526 78580
L112575 78556
L112599 78532
L112624 78483
L112624 78361
L112599 78312
L112575 78288
L112526 78263
L112429 78263
L112380 78288
L112356 78312
L112331 78361
" />
</g>
<g style="fill:#000000; fill-opacity:0.0; 
stroke:#000000; stroke-width:39.3701; stroke-opacity:1; 
stroke-linecap:round; stroke-linejoin:round;">
</g>
<g style="fill:#000000; fill-opacity:0.0; 
stroke:#000000; stroke-width:59.0551; stroke-opacity:1; 
stroke-linecap:round; stroke-linejoin:round;">
<path d="M3937 23622
L4724 23622
" />
</g>
<g style="fill:#000000; fill-opacity:0.0; 
stroke:#000000; stroke-width:39.3701; stroke-opacity:1; 
stroke-linecap:round; stroke-linejoin:round;">
</g>
<g style="fill:#000000; fill-opacity:0.0; 
stroke:#000000; stroke-width:59.0551; stroke-opacity:1; 
stroke-linecap:round; stroke-linejoin:round;">
<path d="M3937 43307
L4724 43307
" />
</g>
<g style="fill:#000000; fill-opacity:0.0; 
stroke:#000000; stroke-width:39.3701; stroke-opacity:1; 
stroke-linecap:round; stroke-linejoin:round;">
</g>
<g style="fill:#000000; fill-opacity:0.0; 
stroke:#000000; stroke-width:59.0551; stroke-opacity:1; 
stroke-linecap:round; stroke-linejoin:round;">
<path d="M3937 62992
L4724 62992
" />
</g>
<g style="fill:#000000; fill-opacity:0.0; 
stroke:#000000; stroke-width:39.3701; stroke-opacity:1; 
stroke-linecap:round; stroke-linejoin:round;">
</g>
<g style="fill:#000000; fill-opacity:0.0; 
stroke:#000000; stroke-width:59.0551; stroke-opacity:1; 
stroke-linecap:round; stroke-linejoin:round;">
<path d="M4208 13864
L4452 13864
" />
<path d="M4160 14011
L4330 13499
L4501 14011
" />
</g>
<g style="fill:#000000; fill-opacity:0.0; 
stroke:#000000; stroke-width:39.3701; stroke-opacity:1; 
stroke-linecap:round; stroke-linejoin:round;">
</g>
<g style="fill:#000000; fill-opacity:0.0; 
stroke:#000000; stroke-width:59.0551; stroke-opacity:1; 
stroke-linecap:round; stroke-linejoin:round;">
<path d="M4367 33428
L4440 33452
L4464 33476
L4489 33525
L4489 33598
L4464 33647
L4440 33671
L4391 33696
L4196 33696
L4196 33184
L4367 33184
L4416 33208
L4440 33233
L4464 33281
L4464 33330
L4440 33379
L4416 33403
L4367 33428
L4196 33428
" />
</g>
<g style="fill:#000000; fill-opacity:0.0; 
stroke:#000000; stroke-width:39.3701; stroke-opacity:1; 
stroke-linecap:round; stroke-linejoin:round;">
</g>
<g style="fill:#000000; fill-opacity:0.0; 
stroke:#000000; stroke-width:59.0551; stroke-opacity:1; 
stroke-linecap:round; stroke-linejoin:round;">
<path d="M4489 53332
L4464 53356
L4391 53381
L4342 53381
L4269 53356
L4221 53308
L4196 53259
L4172 53161
L4172 53088
L4196 52991
L4221 52942
L4269 52893
L4342 52869
L4391 52869
L4464 52893
L4489 52918
" />
</g>
<g style="fill:#000000; fill-opacity:0.0; 
stroke:#000000; stroke-width:39.3701; stroke-opacity:1; 
stroke-linecap:round; stroke-linejoin:round;">
</g>
<g style="fill:#000000; fill-opacity:0.0; 
stroke:#000000; stroke-width:59.0551; stroke-opacity:1; 
stroke-linecap:round; stroke-linejoin:round;">
<path d="M4196 73066
L4196 72554
L4318 72554
L4391 72578
L4440 72627
L4464 72676
L4489 72773
L4489 72846
L4464 72944
L4440 72993
L4391 73041
L4318 73066
L4196 73066
" />
</g>
<g style="fill:#000000; fill-opacity:0.0; 
stroke:#000000; stroke-width:39.3701; stroke-opacity:1; 
stroke-linecap:round; stroke-linejoin:round;">
</g>
<g style="fill:#000000; fill-opacity:0.0; 
stroke:#000000; stroke-width:59.0551; stroke-opacity:1; 
stroke-linecap:round; stroke-linejoin:round;">
<path d="M112992 23622
L112205 23622
" />
</g>
<g style="fill:#000000; fill-opacity:0.0; 
stroke:#000000; stroke-width:39.3701; stroke-opacity:1; 
stroke-linecap:round; stroke-linejoin:round;">
</g>
<g style="fill:#000000; fill-opacity:0.0; 
stroke:#000000; stroke-width:59.0551; stroke-opacity:1; 
stroke-linecap:round; stroke-linejoin:round;">
<path d="M112992 43307
L112205 43307
" />
</g>
<g style="fill:#000000; fill-opacity:0.0; 
stroke:#000000; stroke-width:39.3701; stroke-opacity:1; 
stroke-linecap:round; stroke-linejoin:round;">
</g>
<g style="fill:#000000; fill-opacity:0.0; 
stroke:#000000; stroke-width:59.0551; stroke-opacity:1; 
stroke-linecap:round; stroke-linejoin:round;">
<path d="M112992 62992
L112205 62992
" />
</g>
<g style="fill:#000000; fill-opacity:0.0; 
stroke:#000000; stroke-width:39.3701; stroke-opacity:1; 
stroke-linecap:round; stroke-linejoin:round;">
</g>
<g style="fill:#000000; fill-opacity:0.0; 
stroke:#000000; stroke-width:59.0551; stroke-opacity:1; 
stroke-linecap:round; stroke-linejoin:round;">
<path d="M112477 13864
L112721 13864
" />
<path d="M112428 14011
L112599 13499
L112769 14011
" />
</g>
<g style="fill:#000000; fill-opacity:0.0; 
stroke:#000000; stroke-width:39.3701; stroke-opacity:1; 
stroke-linecap:round; stroke-linejoin:round;">
</g>
<g style="fill:#000000; fill-opacity:0.0; 
stroke:#000000; stroke-width:59.0551; stroke-opacity:1; 
stroke-linecap:round; stroke-linejoin:round;">
<path d="M112635 33428
L112708 33452
L112733 33476
L112757 33525
L112757 33598
L112733 33647
L112708 33671
L112660 33696
L112465 33696
L112465 33184
L112635 33184
L112684 33208
L112708 33233
L112733 33281
L112733 33330
L112708 33379
L112684 33403
L112635 33428
L112465 33428
" />
</g>
<g style="fill:#000000; fill-opacity:0.0; 
stroke:#000000; stroke-width:39.3701; stroke-opacity:1; 
stroke-linecap:round; stroke-linejoin:round;">
</g>
<g style="fill:#000000; fill-opacity:0.0; 
stroke:#000000; stroke-width:59.0551; stroke-opacity:1; 
stroke-linecap:round; stroke-linejoin:round;">
<path d="M112757 53332
L112733 53356
L112660 53381
L112611 53381
L112538 53356
L112489 53308
L112465 53259
L112440 53161
L112440 53088
L112465 52991
L112489 52942
L112538 52893
L112611 52869
L112660 52869
L112733 52893
L112757 52918
" />
</g>
<g style="fill:#000000; fill-opacity:0.0; 
stroke:#000000; stroke-width:39.3701; stroke-opacity:1; 
stroke-linecap:round; stroke-linejoin:round;">
</g>
<g style="fill:#000000; fill-opacity:0.0; 
stroke:#000000; stroke-width:59.0551; stroke-opacity:1; 
stroke-linecap:round; stroke-linejoin:round;">
<path d="M112465 73066
L112465 72554
L112587 72554
L112660 72578
L112708 72627
L112733 72676
L112757 72773
L112757 72846
L112733 72944
L112708 72993
L112660 73041
L112587 73066
L112465 73066
" />
</g>
<g style="fill:#000000; fill-opacity:0.0; 
stroke:#000000; stroke-width:39.3701; stroke-opacity:1; 
stroke-linecap:round; stroke-linejoin:round;">
</g>
<g style="fill:#000000; fill-opacity:0.0; 
stroke:#000000; stroke-width:59.0551; stroke-opacity:1; 
stroke-linecap:round; stroke-linejoin:round;">
<path d="M78911 76293
L78911 75703
L79051 75703
L79136 75731
L79192 75787
L79220 75843
L79248 75956
L79248 76040
L79220 76153
L79192 76209
L79136 76265
L79051 76293
L78911 76293
" />
<path d="M79754 76293
L79754 75984
L79726 75928
L79670 75899
L79557 75899
L79501 75928
" />
<path d="M79754 76265
L79698 76293
L79557 76293
L79501 76265
L79473 76209
L79473 76153
L79501 76096
L79557 76068
L79698 76068
L79754 76040
" />
<path d="M79951 75899
L80176 75899
" />
<path d="M80036 75703
L80036 76209
L80064 76265
L80120 76293
L80176 76293
" />
<path d="M80598 76265
L80542 76293
L80429 76293
L80373 76265
L80345 76209
L80345 75984
L80373 75928
L80429 75899
L80542 75899
L80598 75928
L80626 75984
L80626 76040
L80345 76096
" />
<path d="M80879 76237
L80907 76265
L80879 76293
L80851 76265
L80879 76237
L80879 76293
" />
<path d="M80879 75928
L80907 75956
L80879 75984
L80851 75956
L80879 75928
L80879 75984
" />
</g>
<g style="fill:#000000; fill-opacity:0.0; 
stroke:#000000; stroke-width:39.3701; stroke-opacity:1; 
stroke-linecap:round; stroke-linejoin:round;">
</g>
<g style="fill:#000000; fill-opacity:0.0; 
stroke:#000000; stroke-width:59.0551; stroke-opacity:1; 
stroke-linecap:round; stroke-linejoin:round;">
<path d="M69685 76577
L112205 76577
" />
</g>
<g style="fill:#000000; fill-opacity:0.0; 
stroke:#000000; stroke-width:39.3701; stroke-opacity:1; 
stroke-linecap:round; stroke-linejoin:round;">
</g>
<g style="fill:#000000; fill-opacity:0.0; 
stroke:#000000; stroke-width:59.0551; stroke-opacity:1; 
stroke-linecap:round; stroke-linejoin:round;">
<path d="M70249 77395
L70249 76805
" />
<path d="M70587 77395
L70334 77058
" />
<path d="M70587 76805
L70249 77142
" />
<path d="M70840 77395
L70840 77002
" />
<path d="M70840 76805
L70812 76833
L70840 76861
L70868 76833
L70840 76805
L70840 76861
" />
<path d="M71458 77339
L71430 77367
L71346 77395
L71290 77395
L71205 77367
L71149 77311
L71121 77255
L71093 77142
L71093 77058
L71121 76946
L71149 76889
L71205 76833
L71290 76805
L71346 76805
L71430 76833
L71458 76861
" />
<path d="M71965 77395
L71965 77086
L71937 77030
L71880 77002
L71768 77002
L71712 77030
" />
<path d="M71965 77367
L71908 77395
L71768 77395
L71712 77367
L71683 77311
L71683 77255
L71712 77199
L71768 77171
L71908 77171
L71965 77142
" />
<path d="M72499 77395
L72499 76805
" />
<path d="M72499 77367
L72443 77395
L72330 77395
L72274 77367
L72246 77339
L72218 77283
L72218 77114
L72246 77058
L72274 77030
L72330 77002
L72443 77002
L72499 77030
" />
<path d="M73230 77086
L73427 77086
" />
<path d="M73511 77395
L73230 77395
L73230 76805
L73511 76805
" />
<path d="M73764 77339
L73793 77367
L73764 77395
L73736 77367
L73764 77339
L73764 77395
" />
<path d="M74046 77395
L74046 76805
L74186 76805
L74271 76833
L74327 76889
L74355 76946
L74383 77058
L74383 77142
L74355 77255
L74327 77311
L74271 77367
L74186 77395
L74046 77395
" />
<path d="M74636 77339
L74664 77367
L74636 77395
L74608 77367
L74636 77339
L74636 77395
" />
<path d="M74889 77227
L75171 77227
" />
<path d="M74833 77395
L75030 76805
L75227 77395
" />
<path d="M75424 77339
L75452 77367
L75424 77395
L75395 77367
L75424 77339
L75424 77395
" />
<path d="M76605 77395
L76605 76805
" />
<path d="M76661 77171
L76830 77395
" />
<path d="M76830 77002
L76605 77227
" />
<path d="M77083 77395
L77083 77002
" />
<path d="M77083 76805
L77055 76833
L77083 76861
L77111 76833
L77083 76805
L77083 76861
" />
<path d="M77617 77367
L77561 77395
L77448 77395
L77392 77367
L77364 77339
L77336 77283
L77336 77114
L77364 77058
L77392 77030
L77448 77002
L77561 77002
L77617 77030
" />
<path d="M78123 77395
L78123 77086
L78095 77030
L78039 77002
L77926 77002
L77870 77030
" />
<path d="M78123 77367
L78067 77395
L77926 77395
L77870 77367
L77842 77311
L77842 77255
L77870 77199
L77926 77171
L78067 77171
L78123 77142
" />
<path d="M78658 77395
L78658 76805
" />
<path d="M78658 77367
L78601 77395
L78489 77395
L78433 77367
L78404 77339
L78376 77283
L78376 77114
L78404 77058
L78433 77030
L78489 77002
L78601 77002
L78658 77030
" />
<path d="M79670 76805
L79389 76805
L79361 77086
L79389 77058
L79445 77030
L79586 77030
L79642 77058
L79670 77086
L79698 77142
L79698 77283
L79670 77339
L79642 77367
L79586 77395
L79445 77395
L79389 77367
L79361 77339
" />
<path d="M79951 77339
L79979 77367
L79951 77395
L79923 77367
L79951 77339
L79951 77395
" />
<path d="M80542 77395
L80204 77395
" />
<path d="M80373 77395
L80373 76805
L80317 76889
L80260 76946
L80204 76974
" />
<path d="M80795 77339
L80823 77367
L80795 77395
L80767 77367
L80795 77339
L80795 77395
" />
<path d="M81048 76861
L81076 76833
L81132 76805
L81273 76805
L81329 76833
L81357 76861
L81385 76917
L81385 76974
L81357 77058
L81020 77395
L81385 77395
" />
<path d="M81638 77171
L82088 77171
" />
<path d="M82285 77002
L82510 77002
" />
<path d="M82370 77395
L82370 76889
L82398 76833
L82454 76805
L82510 76805
" />
<path d="M82651 76805
L83045 76805
L82791 77395
" />
<path d="M83241 76861
L83269 76833
L83326 76805
L83466 76805
L83523 76833
L83551 76861
L83579 76917
L83579 76974
L83551 77058
L83213 77395
L83579 77395
" />
<path d="M84057 77367
L84001 77395
L83888 77395
L83832 77367
L83804 77311
L83804 77086
L83832 77030
L83888 77002
L84001 77002
L84057 77030
L84085 77086
L84085 77142
L83804 77199
" />
<path d="M84282 76805
L84676 76805
L84422 77395
" />
<path d="M85154 77002
L85154 77395
" />
<path d="M85013 76777
L84872 77199
L85238 77199
" />
<path d="M85716 77395
L85716 77086
L85688 77030
L85632 77002
L85519 77002
L85463 77030
" />
<path d="M85716 77367
L85660 77395
L85519 77395
L85463 77367
L85435 77311
L85435 77255
L85463 77199
L85519 77171
L85660 77171
L85716 77142
" />
<path d="M85857 76644
L86419 76644
" />
<path d="M86082 77058
L86025 77030
L85997 77002
L85969 76946
L85969 76917
L85997 76861
L86025 76833
L86082 76805
L86194 76805
L86250 76833
L86278 76861
L86307 76917
L86307 76946
L86278 77002
L86250 77030
L86194 77058
L86082 77058
L86025 77086
L85997 77114
L85969 77171
L85969 77283
L85997 77339
L86025 77367
L86082 77395
L86194 77395
L86250 77367
L86278 77339
L86307 77283
L86307 77171
L86278 77114
L86250 77086
L86194 77058
" />
<path d="M86419 76644
L86982 76644
" />
<path d="M86813 77002
L86813 77395
" />
<path d="M86672 76777
L86532 77199
L86897 77199
" />
<path d="M87375 77002
L87375 77395
" />
<path d="M87122 77002
L87122 77311
L87150 77367
L87206 77395
L87291 77395
L87347 77367
L87375 77339
" />
<path d="M87656 77395
L87656 76805
" />
<path d="M87656 77030
L87713 77002
L87825 77002
L87881 77030
L87910 77058
L87938 77114
L87938 77283
L87910 77339
L87881 77367
L87825 77395
L87713 77395
L87656 77367
" />
<path d="M88444 77002
L88444 77395
" />
<path d="M88191 77002
L88191 77311
L88219 77367
L88275 77395
L88359 77395
L88416 77367
L88444 77339
" />
<path d="M88725 77002
L88725 77395
" />
<path d="M88725 77058
L88753 77030
L88809 77002
L88894 77002
L88950 77030
L88978 77086
L88978 77395
" />
<path d="M89175 77002
L89400 77002
" />
<path d="M89259 76805
L89259 77311
L89287 77367
L89344 77395
L89400 77395
" />
<path d="M89850 77002
L89850 77395
" />
<path d="M89597 77002
L89597 77311
L89625 77367
L89681 77395
L89766 77395
L89822 77367
L89850 77339
" />
<path d="M90440 77395
L90103 77395
" />
<path d="M90272 77395
L90272 76805
L90215 76889
L90159 76946
L90103 76974
" />
<path d="M90947 76805
L90834 76805
L90778 76833
L90750 76861
L90694 76946
L90665 77058
L90665 77283
L90694 77339
L90722 77367
L90778 77395
L90890 77395
L90947 77367
L90975 77339
L91003 77283
L91003 77142
L90975 77086
L90947 77058
L90890 77030
L90778 77030
L90722 77058
L90694 77086
L90665 77142
" />
<path d="M91256 77339
L91284 77367
L91256 77395
L91228 77367
L91256 77339
L91256 77395
" />
<path d="M91650 76805
L91706 76805
L91762 76833
L91790 76861
L91818 76917
L91847 77030
L91847 77171
L91818 77283
L91790 77339
L91762 77367
L91706 77395
L91650 77395
L91593 77367
L91565 77339
L91537 77283
L91509 77171
L91509 77030
L91537 76917
L91565 76861
L91593 76833
L91650 76805
" />
<path d="M92353 77002
L92353 77395
" />
<path d="M92212 76777
L92072 77199
L92437 77199
" />
<path d="M92662 77339
L92690 77367
L92662 77395
L92634 77367
L92662 77339
L92662 77395
" />
<path d="M93253 77395
L92915 77395
" />
<path d="M93084 77395
L93084 76805
L93028 76889
L92971 76946
L92915 76974
" />
</g>
<g style="fill:#000000; fill-opacity:0.0; 
stroke:#000000; stroke-width:39.3701; stroke-opacity:1; 
stroke-linecap:round; stroke-linejoin:round;">
</g>
<g style="fill:#000000; fill-opacity:0.0; 
stroke:#000000; stroke-width:59.0551; stroke-opacity:1; 
stroke-linecap:round; stroke-linejoin:round;">
<path d="M69685 75396
L112205 75396
" />
</g>
<g style="fill:#000000; fill-opacity:0.0; 
stroke:#000000; stroke-width:39.3701; stroke-opacity:1; 
stroke-linecap:round; stroke-linejoin:round;">
</g>
<g style="fill:#000000; fill-opacity:0.0; 
stroke:#000000; stroke-width:118.11; stroke-opacity:1; 
stroke-linecap:round; stroke-linejoin:round;">
<path d="M104099 76293
L103902 76012
" />
<path d="M103761 76293
L103761 75703
L103986 75703
L104042 75731
L104070 75759
L104099 75815
L104099 75899
L104070 75956
L104042 75984
L103986 76012
L103761 76012
" />
<path d="M104577 76265
L104520 76293
L104408 76293
L104352 76265
L104323 76209
L104323 75984
L104352 75928
L104408 75899
L104520 75899
L104577 75928
L104605 75984
L104605 76040
L104323 76096
" />
<path d="M104802 75899
L104942 76293
L105083 75899
" />
<path d="M105308 76237
L105336 76265
L105308 76293
L105280 76265
L105308 76237
L105308 76293
" />
<path d="M105308 75928
L105336 75956
L105308 75984
L105280 75956
L105308 75928
L105308 75984
" />
</g>
<g style="fill:#000000; fill-opacity:0.0; 
stroke:#000000; stroke-width:39.3701; stroke-opacity:1; 
stroke-linecap:round; stroke-linejoin:round;">
</g>
<g style="fill:#000000; fill-opacity:0.0; 
stroke:#000000; stroke-width:59.0551; stroke-opacity:1; 
stroke-linecap:round; stroke-linejoin:round;">
<path d="M70221 76265
L70305 76293
L70446 76293
L70502 76265
L70530 76237
L70559 76181
L70559 76124
L70530 76068
L70502 76040
L70446 76012
L70334 75984
L70277 75956
L70249 75928
L70221 75871
L70221 75815
L70249 75759
L70277 75731
L70334 75703
L70474 75703
L70559 75731
" />
<path d="M70812 76293
L70812 75899
" />
<path d="M70812 75703
L70784 75731
L70812 75759
L70840 75731
L70812 75703
L70812 75759
" />
<path d="M71037 75899
L71346 75899
L71037 76293
L71346 76293
" />
<path d="M71796 76265
L71740 76293
L71627 76293
L71571 76265
L71543 76209
L71543 75984
L71571 75928
L71627 75899
L71740 75899
L71796 75928
L71824 75984
L71824 76040
L71543 76096
" />
<path d="M72077 76237
L72105 76265
L72077 76293
L72049 76265
L72077 76237
L72077 76293
" />
<path d="M72077 75928
L72105 75956
L72077 75984
L72049 75956
L72077 75928
L72077 75984
" />
<path d="M72780 76124
L73061 76124
" />
<path d="M72724 76293
L72921 75703
L73118 76293
" />
<path d="M73568 75899
L73568 76293
" />
<path d="M73427 75674
L73286 76096
L73652 76096
" />
</g>
<g style="fill:#000000; fill-opacity:0.0; 
stroke:#000000; stroke-width:39.3701; stroke-opacity:1; 
stroke-linecap:round; stroke-linejoin:round;">
</g>
<g style="fill:#000000; fill-opacity:0.0; 
stroke:#000000; stroke-width:59.0551; stroke-opacity:1; 
stroke-linecap:round; stroke-linejoin:round;">
<path d="M103714 77395
L103714 76805
" />
<path d="M104248 77395
L104248 76805
" />
<path d="M104248 77367
L104192 77395
L104079 77395
L104023 77367
L103995 77339
L103967 77283
L103967 77114
L103995 77058
L104023 77030
L104079 77002
L104192 77002
L104248 77030
" />
<path d="M104529 77339
L104557 77367
L104529 77395
L104501 77367
L104529 77339
L104529 77395
" />
<path d="M104529 77030
L104557 77058
L104529 77086
L104501 77058
L104529 77030
L104529 77086
" />
<path d="M105570 77395
L105232 77395
" />
<path d="M105401 77395
L105401 76805
L105345 76889
L105289 76946
L105232 76974
" />
<path d="M106245 76777
L105739 77536
" />
<path d="M106751 77395
L106413 77395
" />
<path d="M106582 77395
L106582 76805
L106526 76889
L106470 76946
L106413 76974
" />
</g>
<g style="fill:#000000; fill-opacity:0.0; 
stroke:#000000; stroke-width:39.3701; stroke-opacity:1; 
stroke-linecap:round; stroke-linejoin:round;">
</g>
<g style="fill:#000000; fill-opacity:0.0; 
stroke:#000000; stroke-width:59.0551; stroke-opacity:1; 
stroke-linecap:round; stroke-linejoin:round;">
<path d="M69685 73821
L112205 73821
" />
</g>
<g style="fill:#000000; fill-opacity:0.0; 
stroke:#000000; stroke-width:39.3701; stroke-opacity:1; 
stroke-linecap:round; stroke-linejoin:round;">
</g>
<g style="fill:#000000; fill-opacity:0.0; 
stroke:#000000; stroke-width:157.48; stroke-opacity:1; 
stroke-linecap:round; stroke-linejoin:round;">
<path d="M70360 74099
L70810 74099
" />
<path d="M70486 74886
L70585 74099
" />
<path d="M70974 74886
L71039 74361
" />
<path d="M71072 74099
L71030 74136
L71063 74174
L71105 74136
L71072 74099
L71063 74174
" />
<path d="M71302 74361
L71602 74361
" />
<path d="M71447 74099
L71363 74774
L71391 74849
L71461 74886
L71536 74886
" />
<path d="M71911 74886
L71841 74849
L71813 74774
L71897 74099
" />
<path d="M72516 74849
L72436 74886
L72286 74886
L72216 74849
L72187 74774
L72225 74474
L72272 74399
L72352 74361
L72501 74361
L72572 74399
L72600 74474
L72591 74549
L72206 74624
" />
<path d="M72895 74811
L72928 74849
L72886 74886
L72853 74849
L72895 74811
L72886 74886
" />
<path d="M72947 74399
L72980 74436
L72937 74474
L72905 74436
L72947 74399
L72937 74474
" />
</g>
<g style="fill:#000000; fill-opacity:0.0; 
stroke:#000000; stroke-width:39.3701; stroke-opacity:1; 
stroke-linecap:round; stroke-linejoin:round;">
</g>
<g style="fill:#000000; fill-opacity:0.0; 
stroke:#000000; stroke-width:59.0551; stroke-opacity:1; 
stroke-linecap:round; stroke-linejoin:round;">
<path d="M70446 73070
L70249 73070
" />
<path d="M70249 73380
L70249 72789
L70530 72789
" />
<path d="M70755 73380
L70755 72986
" />
<path d="M70755 72789
L70727 72817
L70755 72845
L70784 72817
L70755 72789
L70755 72845
" />
<path d="M71121 73380
L71065 73352
L71037 73295
L71037 72789
" />
<path d="M71571 73352
L71515 73380
L71402 73380
L71346 73352
L71318 73295
L71318 73070
L71346 73014
L71402 72986
L71515 72986
L71571 73014
L71599 73070
L71599 73127
L71318 73183
" />
<path d="M71852 73323
L71880 73352
L71852 73380
L71824 73352
L71852 73323
L71852 73380
" />
<path d="M71852 73014
L71880 73042
L71852 73070
L71824 73042
L71852 73014
L71852 73070
" />
<path d="M72668 73042
L72611 73014
L72583 72986
L72555 72930
L72555 72902
L72583 72845
L72611 72817
L72668 72789
L72780 72789
L72836 72817
L72865 72845
L72893 72902
L72893 72930
L72865 72986
L72836 73014
L72780 73042
L72668 73042
L72611 73070
L72583 73099
L72555 73155
L72555 73267
L72583 73323
L72611 73352
L72668 73380
L72780 73380
L72836 73352
L72865 73323
L72893 73267
L72893 73155
L72865 73099
L72836 73070
L72780 73042
" />
<path d="M73343 73070
L73427 73099
L73455 73127
L73483 73183
L73483 73267
L73455 73323
L73427 73352
L73371 73380
L73146 73380
L73146 72789
L73343 72789
L73399 72817
L73427 72845
L73455 72902
L73455 72958
L73427 73014
L73399 73042
L73343 73070
L73146 73070
" />
<path d="M73736 73380
L73736 72986
" />
<path d="M73736 72789
L73708 72817
L73736 72845
L73764 72817
L73736 72789
L73736 72845
" />
<path d="M73933 72986
L74158 72986
" />
<path d="M74018 72789
L74018 73295
L74046 73352
L74102 73380
L74158 73380
" />
<path d="M74214 73436
L74664 73436
" />
<path d="M74805 73070
L75002 73070
" />
<path d="M75086 73380
L74805 73380
L74805 72789
L75086 72789
" />
<path d="M75592 72986
L75592 73380
" />
<path d="M75339 72986
L75339 73295
L75367 73352
L75424 73380
L75508 73380
L75564 73352
L75592 73323
" />
<path d="M75874 73380
L75874 72986
" />
<path d="M75874 73099
L75902 73042
L75930 73014
L75986 72986
L76042 72986
" />
<path d="M76323 73380
L76267 73352
L76239 73323
L76211 73267
L76211 73099
L76239 73042
L76267 73014
L76323 72986
L76408 72986
L76464 73014
L76492 73042
L76520 73099
L76520 73267
L76492 73323
L76464 73352
L76408 73380
L76323 73380
" />
<path d="M77111 73380
L76914 73099
" />
<path d="M76773 73380
L76773 72789
L76998 72789
L77055 72817
L77083 72845
L77111 72902
L77111 72986
L77083 73042
L77055 73070
L76998 73099
L76773 73099
" />
<path d="M77617 73380
L77617 73070
L77589 73014
L77533 72986
L77420 72986
L77364 73014
" />
<path d="M77617 73352
L77561 73380
L77420 73380
L77364 73352
L77336 73295
L77336 73239
L77364 73183
L77420 73155
L77561 73155
L77617 73127
" />
<path d="M78151 73352
L78095 73380
L77983 73380
L77926 73352
L77898 73323
L77870 73267
L77870 73099
L77898 73042
L77926 73014
L77983 72986
L78095 72986
L78151 73014
" />
<path d="M78404 73380
L78404 72789
" />
<path d="M78461 73155
L78629 73380
" />
<path d="M78629 72986
L78404 73211
" />
<path d="M78742 73436
L79192 73436
" />
<path d="M79276 72789
L79670 72789
L79417 73380
" />
<path d="M79895 73380
L79895 72789
" />
<path d="M80148 73380
L80148 73070
L80120 73014
L80064 72986
L79979 72986
L79923 73014
L79895 73042
" />
<path d="M80429 72986
L80429 73577
" />
<path d="M80429 73014
L80485 72986
L80598 72986
L80654 73014
L80682 73042
L80710 73099
L80710 73267
L80682 73323
L80654 73352
L80598 73380
L80485 73380
L80429 73352
" />
<path d="M80964 73323
L80992 73352
L80964 73380
L80935 73352
L80964 73323
L80964 73380
" />
<path d="M81245 73380
L81245 72789
" />
<path d="M81301 73155
L81470 73380
" />
<path d="M81470 72986
L81245 73211
" />
<path d="M81723 73380
L81723 72986
" />
<path d="M81723 72789
L81695 72817
L81723 72845
L81751 72817
L81723 72789
L81723 72845
" />
<path d="M82257 73352
L82201 73380
L82088 73380
L82032 73352
L82004 73323
L81976 73267
L81976 73099
L82004 73042
L82032 73014
L82088 72986
L82201 72986
L82257 73014
" />
<path d="M82763 73380
L82763 73070
L82735 73014
L82679 72986
L82566 72986
L82510 73014
" />
<path d="M82763 73352
L82707 73380
L82566 73380
L82510 73352
L82482 73295
L82482 73239
L82510 73183
L82566 73155
L82707 73155
L82763 73127
" />
<path d="M83298 73380
L83298 72789
" />
<path d="M83298 73352
L83241 73380
L83129 73380
L83073 73352
L83045 73323
L83016 73267
L83016 73099
L83045 73042
L83073 73014
L83129 72986
L83241 72986
L83298 73014
" />
<path d="M83438 73436
L83888 73436
" />
<path d="M84029 72986
L84029 73577
" />
<path d="M84029 73014
L84085 72986
L84197 72986
L84254 73014
L84282 73042
L84310 73099
L84310 73267
L84282 73323
L84254 73352
L84197 73380
L84085 73380
L84029 73352
" />
<path d="M84816 73352
L84760 73380
L84647 73380
L84591 73352
L84563 73323
L84535 73267
L84535 73099
L84563 73042
L84591 73014
L84647 72986
L84760 72986
L84816 73014
" />
<path d="M85069 73380
L85069 72789
" />
<path d="M85069 73014
L85126 72986
L85238 72986
L85294 73014
L85322 73042
L85350 73099
L85350 73267
L85322 73323
L85294 73352
L85238 73380
L85126 73380
L85069 73352
" />
</g>
<g style="fill:#000000; fill-opacity:0.0; 
stroke:#000000; stroke-width:39.3701; stroke-opacity:1; 
stroke-linecap:round; stroke-linejoin:round;">
</g>
<g style="fill:#000000; fill-opacity:0.0; 
stroke:#000000; stroke-width:59.0551; stroke-opacity:1; 
stroke-linecap:round; stroke-linejoin:round;">
<path d="M69685 71459
L112205 71459
" />
</g>
<g style="fill:#000000; fill-opacity:0.0; 
stroke:#000000; stroke-width:39.3701; stroke-opacity:1; 
stroke-linecap:round; stroke-linejoin:round;">
</g>
<g style="fill:#000000; fill-opacity:0.0; 
stroke:#000000; stroke-width:59.0551; stroke-opacity:1; 
stroke-linecap:round; stroke-linejoin:round;">
<path d="M70221 72289
L70305 72317
L70446 72317
L70502 72289
L70530 72260
L70559 72204
L70559 72148
L70530 72092
L70502 72064
L70446 72036
L70334 72007
L70277 71979
L70249 71951
L70221 71895
L70221 71839
L70249 71782
L70277 71754
L70334 71726
L70474 71726
L70559 71754
" />
<path d="M70812 72317
L70812 71726
" />
<path d="M71065 72317
L71065 72007
L71037 71951
L70980 71923
L70896 71923
L70840 71951
L70812 71979
" />
<path d="M71571 72289
L71515 72317
L71402 72317
L71346 72289
L71318 72232
L71318 72007
L71346 71951
L71402 71923
L71515 71923
L71571 71951
L71599 72007
L71599 72064
L71318 72120
" />
<path d="M72077 72289
L72021 72317
L71908 72317
L71852 72289
L71824 72232
L71824 72007
L71852 71951
L71908 71923
L72021 71923
L72077 71951
L72105 72007
L72105 72064
L71824 72120
" />
<path d="M72274 71923
L72499 71923
" />
<path d="M72358 71726
L72358 72232
L72386 72289
L72443 72317
L72499 72317
" />
<path d="M72696 72260
L72724 72289
L72696 72317
L72668 72289
L72696 72260
L72696 72317
" />
<path d="M72696 71951
L72724 71979
L72696 72007
L72668 71979
L72696 71951
L72696 72007
" />
</g>
<g style="fill:#000000; fill-opacity:0.0; 
stroke:#000000; stroke-width:39.3701; stroke-opacity:1; 
stroke-linecap:round; stroke-linejoin:round;">
</g>
<g style="fill:#000000; fill-opacity:0.0; 
stroke:#000000; stroke-width:59.0551; stroke-opacity:1; 
stroke-linecap:round; stroke-linejoin:round;">
<path d="M77559 75396
L77559 76577
" />
</g>
<g style="fill:#000000; fill-opacity:0.0; 
stroke:#000000; stroke-width:39.3701; stroke-opacity:1; 
stroke-linecap:round; stroke-linejoin:round;">
</g>
<g style="fill:#000000; fill-opacity:0.0; 
stroke:#000000; stroke-width:59.0551; stroke-opacity:1; 
stroke-linecap:round; stroke-linejoin:round;">
<path d="M102756 75396
L102756 77955
" />
</g>
<g style="fill:#008484; fill-opacity:0.0; 
stroke:#008484; stroke-width:59.0551; stroke-opacity:1; 
stroke-linecap:round; stroke-linejoin:round;">
</g>
<g style="fill:#008484; fill-opacity:1.0; 
stroke:#008484; stroke-width:3.93701; stroke-opacity:1; 
stroke-linecap:round; stroke-linejoin:round;">
<path style="fill:#008484; fill-opacity:1.0; 
stroke:#008484; stroke-width:3.93701; stroke-opacity:1; 
stroke-linecap:round; stroke-linejoin:round;fill-rule:evenodd;"
d="M 27685,19770
27906,19770
28117,19770
28320,19770
28514,19770
28699,19770
28876,19770
29043,19770
29203,19771
29354,19771
29497,19771
29632,19771
29759,19771
29878,19771
29989,19771
30092,19771
30187,19772
30275,19772
30355,19772
30428,19772
30494,19772
30552,19773
30603,19773
30647,19773
30685,19773
30715,19774
30739,19774
30755,19774
30766,19774
30768,19775
30913,19790
31054,19815
31192,19849
31327,19893
31458,19946
31586,20008
31710,20080
31829,20161
31911,20223
31940,20247
31974,20277
32011,20311
32049,20348
32087,20386
32124,20423
32157,20459
32186,20490
32203,20510
32292,20628
32372,20748
32442,20872
32503,21000
32555,21131
32597,21266
32631,21406
32655,21549
32658,21570
32661,21596
32664,21629
32667,21666
32669,21704
32671,21738
32671,21746
32671,21764
32671,21791
32671,21828
32671,21875
32672,21931
32672,21996
32672,22070
32672,22153
32672,22244
32672,22344
32672,22453
32672,22570
32673,22694
32673,22827
32673,22968
32673,23117
32673,23273
32673,23436
32673,23607
32673,23784
32673,23969
32673,24161
32674,24359
32674,24564
32674,24775
32674,24993
32674,25217
32674,25446
32674,25682
32674,25923
32674,26170
32674,26422
32674,26679
32674,26941
32674,27209
32675,27481
32675,27758
32675,28040
32675,28325
32675,28616
32675,28910
32675,29208
32675,29510
32675,29816
32675,30125
32675,30438
32675,30753
32675,31072
32675,31394
32675,31719
32675,32046
32675,32376
32675,32709
32675,33043
32675,33380
32675,33718
32675,34059
32675,34401
32675,34744
32675,35089
32676,35435
32676,35783
32676,36131
32676,36480
32676,36829
32676,37180
32676,37530
32676,37881
32676,38232
32676,38582
32676,38933
32676,39283
32676,39633
32676,39982
32676,40330
32676,40678
32675,41024
32675,41369
32675,41713
32675,42055
32675,42396
32675,42735
32675,43071
32675,43406
32675,43739
32675,44069
32675,44397
32675,44722
32675,45044
32675,45364
32675,45680
32675,45993
32675,46302
32675,46609
32675,46911
32675,47210
32675,47505
32675,47795
32675,48082
32675,48364
32675,48641
32674,48914
32674,49182
32674,49445
32674,49703
32674,49956
32674,50204
32674,50445
32674,50682
32674,50912
32674,51136
32674,51355
32674,51567
32674,51773
32673,51972
32673,52164
32673,52350
32673,52529
32673,52700
32673,52865
32673,53022
32673,53171
32673,53313
32673,53447
32672,53573
32672,53691
32672,53800
32672,53901
32672,53994
32672,54078
32672,54153
32672,54219
32672,54276
32671,54324
32671,54362
32671,54391
32671,54410
32671,54420
32671,54420
32665,54519
32655,54611
32642,54699
32625,54786
32603,54875
32590,54922
32546,55054
32493,55184
32431,55310
32361,55431
32283,55547
32196,55658
32156,55704
32128,55736
32102,55764
32077,55790
32053,55814
32027,55839
31999,55864
31968,55891
31933,55920
31893,55954
31846,55992
31823,56010
31800,56029
31780,56045
31762,56058
31745,56071
31728,56082
31708,56094
31686,56108
31659,56123
31627,56140
31588,56162
31564,56174
31395,56266
31209,56323
31023,56380
30831,56400
30638,56419
19368,56418
18998,56380
18626,56265
18457,56174
18412,56149
18370,56126
18334,56105
18304,56088
18281,56073
18265,56063
18261,56059
18248,56049
18229,56033
18206,56015
18181,55994
18158,55976
18116,55942
18080,55913
18049,55886
18021,55862
17996,55838
17970,55813
17944,55786
17934,55776
17853,55689
17781,55602
17716,55514
17656,55423
17601,55326
17551,55229
17495,55102
17448,54973
17411,54843
17382,54709
17363,54572
17356,54500
17356,54494
17355,54483
17355,54467
17355,54444
17355,54416
17355,54381
17355,54341
17355,54294
17354,54241
17354,54182
17354,54117
17354,54045
17354,53967
17354,53882
17354,53791
17353,53693
17353,53588
17353,53477
17353,53359
17353,53234
17353,53102
17353,52963
17353,52878
18451,52878
18555,52881
18654,52886
18747,52893
18837,52903
18928,52917
19003,52930
19160,52964
19314,53007
19464,53059
19609,53118
19750,53186
19885,53261
20016,53343
20140,53432
20259,53529
20372,53631
20478,53740
20577,53855
20668,53975
20752,54101
20828,54232
20896,54367
20955,54508
20969,54544
21011,54672
21046,54802
21073,54932
21092,55062
21103,55188
21104,55201
21107,55270
28774,55270
28780,55166
28786,55077
28795,54994
28807,54915
28822,54835
28841,54752
28843,54742
28884,54597
28934,54455
28994,54315
29062,54179
29139,54048
29225,53921
29319,53799
29376,53732
29405,53700
29440,53664
29478,53626
29518,53586
29558,53548
29596,53512
29631,53482
29646,53469
29773,53369
29906,53277
30045,53193
30188,53118
30336,53051
30488,52993
30644,52944
30803,52904
30965,52874
31006,52868
31057,52861
31104,52855
31147,52850
31190,52847
31234,52845
31282,52843
31335,52842
31395,52842
31402,52842
31571,52842
31571,38164
31571,37781
31571,37399
31571,37021
31571,36644
31571,36271
31571,35900
31571,35533
31571,35168
31571,34807
31571,34449
31571,34094
31571,33743
31571,33396
31571,33052
31571,32713
31571,32377
31571,32046
31571,31719
31571,31397
31571,31079
31570,30766
31570,30457
31570,30154
31570,29855
31570,29562
31570,29274
31570,28992
31570,28715
31570,28444
31570,28178
31570,27919
31570,27665
31570,27418
31570,27177
31570,26942
31570,26714
31570,26493
31570,26278
31570,26071
31570,25870
31570,25677
31570,25491
31570,25312
31570,25141
31570,24977
31570,24821
31570,24674
31569,24534
31569,24402
31569,24279
31569,24164
31569,24057
31569,23960
31569,23870
31569,23790
31569,23719
31569,23657
31569,23604
31569,23561
31569,23527
31569,23503
31569,23489
31569,23484
31563,23484
31550,23483
31529,23483
31504,23484
31485,23485
31319,23485
31153,23475
30989,23456
30826,23426
30665,23388
30508,23340
30353,23282
30308,23263
30163,23196
30023,23121
29890,23039
29762,22950
29641,22853
29526,22751
29418,22642
29318,22527
29225,22407
29140,22282
29063,22151
28995,22016
28935,21877
28884,21734
28864,21667
28827,21522
28801,21378
28784,21235
28777,21091
28777,21008
28779,20895
21106,20895
21109,20986
21109,21125
21099,21265
21080,21405
21052,21546
21015,21686
20969,21823
20915,21959
20853,22091
20783,22219
20718,22322
20628,22449
20530,22571
20425,22685
20313,22793
20195,22894
20071,22987
19941,23074
19806,23152
19667,23223
19523,23286
19374,23341
19223,23387
19068,23425
18910,23454
18749,23474
18587,23484
18526,23486
18453,23487
18452,38182
18451,52878
17353,52878
17353,52817
17353,52664
17353,52503
17352,52336
17352,52161
17352,51978
17352,51788
17352,51591
17352,51386
17352,51174
17352,50953
17352,50725
17352,50489
17352,50245
17352,49994
17352,49734
17352,49466
17352,49190
17352,48906
17352,48613
17352,48312
17351,48003
17351,47685
17351,47358
17351,47023
17351,46680
17351,46327
17351,45966
17351,45596
17351,45217
17351,44829
17351,44432
17351,44026
17351,43610
17351,43186
17351,42752
17352,42308
17352,41856
17352,41393
17352,40921
17352,40440
17352,39949
17352,39448
17352,38937
17352,38416
17352,38032
17353,21637
17364,21562
17385,21440
17410,21326
17439,21218
17474,21113
17515,21010
17550,20932
17616,20807
17689,20687
17771,20573
17859,20465
17955,20364
18057,20269
18165,20182
18279,20102
18398,20030
18522,19966
18650,19910
18783,19864
18895,19832
18988,19811
19087,19793
19168,19781
19172,19781
19176,19780
19181,19780
19187,19779
19194,19779
19202,19779
19212,19778
19223,19778
19236,19778
19251,19777
19267,19777
19286,19777
19308,19776
19332,19776
19359,19776
19388,19776
19421,19775
19458,19775
19497,19775
19540,19775
19587,19774
19638,19774
19694,19774
19753,19774
19817,19774
19886,19774
19959,19773
20037,19773
20121,19773
20210,19773
20305,19773
20405,19773
20511,19773
20623,19772
20741,19772
20866,19772
20997,19772
21135,19772
21280,19772
21432,19772
21591,19772
21758,19772
21932,19772
22114,19771
22304,19771
22502,19771
22708,19771
22923,19771
23146,19771
23378,19771
23619,19771
23869,19771
24129,19771
24398,19771
24676,19771
24965,19771
24966,19771
25281,19771
25587,19770
25882,19770
26168,19770
26445,19770
26712,19770
26969,19770
27217,19770
27456,19770
27685,19770
Z" /> 
</g>
<g style="fill:#008484; fill-opacity:0.0; 
stroke:#008484; stroke-width:59.0551; stroke-opacity:1; 
stroke-linecap:round; stroke-linejoin:round;">
<circle cx="29250" cy="44250" r="511.811" /> 
<path d="M27478 41887
L31021 41887
" />
<path d="M27478 46021
L31021 46021
" />
<path d="M27478 41887
L27478 46021
" />
<path d="M31021 41887
L31021 46021
" />
<circle cx="29250" cy="44250" r="707.107" /> 
<path d="M28500 43500
L30000 43500
" />
<path d="M30000 45000
L28500 45000
" />
<path d="M28500 43500 A1060.66 1060.66 0.0 0 0 28500 45000 " />
<path d="M30000 45000 A1060.66 1060.66 0.0 0 0 30000 43500 " />
<path d="M30000 45750
L31000 45750
" />
<path d="M30000 46000
L30000 45750
" />
<path d="M28500 46000
L30000 46000
" />
<path d="M28500 45750
L28500 46000
" />
<path d="M27500 45750
L28500 45750
" />
<circle cx="29250" cy="26500" r="511.811" /> 
<path d="M27478 24137
L31021 24137
" />
<path d="M27478 28271
L31021 28271
" />
<path d="M27478 24137
L27478 28271
" />
<path d="M31021 24137
L31021 28271
" />
<circle cx="29250" cy="26500" r="707.107" /> 
<path d="M28500 25750
L30000 25750
" />
<path d="M30000 27250
L28500 27250
" />
<path d="M28500 25750 A1060.66 1060.66 0.0 0 0 28500 27250 " />
<path d="M30000 27250 A1060.66 1060.66 0.0 0 0 30000 25750 " />
<path d="M30000 28000
L31000 28000
" />
<path d="M30000 28250
L30000 28000
" />
<path d="M28500 28250
L30000 28250
" />
<path d="M28500 28000
L28500 28250
" />
<path d="M27500 28000
L28500 28000
" />
<circle cx="20750" cy="26500" r="511.811" /> 
<path d="M18978 24137
L22521 24137
" />
<path d="M18978 28271
L22521 28271
" />
<path d="M18978 24137
L18978 28271
" />
<path d="M22521 24137
L22521 28271
" />
<circle cx="20750" cy="26500" r="707.107" /> 
<path d="M20000 25750
L21500 25750
" />
<path d="M21500 27250
L20000 27250
" />
<path d="M20000 25750 A1060.66 1060.66 0.0 0 0 20000 27250 " />
<path d="M21500 27250 A1060.66 1060.66 0.0 0 0 21500 25750 " />
<path d="M21500 28000
L22500 28000
" />
<path d="M21500 28250
L21500 28000
" />
<path d="M20000 28250
L21500 28250
" />
<path d="M20000 28000
L20000 28250
" />
<path d="M19000 28000
L20000 28000
" />
</g>
<g style="fill:#008484; fill-opacity:0.0; 
stroke:#008484; stroke-width:47.2441; stroke-opacity:1; 
stroke-linecap:round; stroke-linejoin:round;">
<path d="M27376 46812
L27376 47883
" />
<path d="M27376 50584
L27376 51655
" />
<path d="M22534 49852
L22534 48616
" />
<path d="M22534 51655
L22534 50584
" />
<circle cx="24995" cy="49250" r="1802.78" /> 
<path d="M22534 47883
L22534 46812
" />
<path d="M27376 51655
L22534 51655
" />
<path d="M27376 48616
L27376 49852
" />
<path d="M22534 46812
L27376 46812
" />
<path d="M24370 34929
L24370 36503
" />
<path d="M25629 34909
L25629 36484
" />
</g>
<g style="fill:#008484; fill-opacity:0.0; 
stroke:#008484; stroke-width:78.7402; stroke-opacity:1; 
stroke-linecap:round; stroke-linejoin:round;">
<circle cx="25000" cy="35500" r="880.342" /> 
<path d="M23031 35500
L23031 33531
" />
<path d="M23031 33531
L26968 33531
" />
<path d="M26968 33531
L26968 37862
" />
<path d="M26968 37862
L23031 37862
" />
<path d="M23031 37862
L23031 35500
" />
</g>
<g style="fill:#008484; fill-opacity:0.0; 
stroke:#008484; stroke-width:47.2441; stroke-opacity:1; 
stroke-linecap:round; stroke-linejoin:round;">
<path d="M20976.4 42143.7 A393.701 393.701 0.0 0 0 20976.4 41356.3 " />
<path d="M20976 42143
L20976 42793
" />
<path d="M20976 42793
L25023 42793
" />
<path d="M25023 42793
L25023 40706
" />
<path d="M25023 40706
L20976 40706
" />
<path d="M20976 40706
L20976 41356
" />
<path d="M20952 43773
L25047 43773
" />
<path d="M25047 43773
L25047 39726
" />
<path d="M25047 39726
L20952 39726
" />
<path d="M20952 39726
L20952 43773
" />
</g>
<g style="fill:#008484; fill-opacity:0.0; 
stroke:#008484; stroke-width:59.0551; stroke-opacity:1; 
stroke-linecap:round; stroke-linejoin:round;">
<path d="M28612 42834
L28612 43115
L28593 43171
L28556 43209
L28500 43228
L28462 43228
" />
<path d="M28968 43228
L28968 43021
L28950 42984
L28912 42965
L28837 42965
L28800 42984
" />
<path d="M28968 43209
L28931 43228
L28837 43228
L28800 43209
L28781 43171
L28781 43134
L28800 43096
L28837 43078
L28931 43078
L28968 43059
" />
<path d="M29324 43209
L29287 43228
L29212 43228
L29175 43209
L29156 43190
L29137 43153
L29137 43040
L29156 43003
L29175 42984
L29212 42965
L29287 42965
L29324 42984
" />
<path d="M29493 43228
L29493 42834
" />
<path d="M29531 43078
L29643 43228
" />
<path d="M29643 42965
L29493 43115
" />
<path d="M30018 43228
L29793 43228
" />
<path d="M29906 43228
L29906 42834
L29868 42890
L29831 42928
L29793 42946
" />
<path d="M28612 25084
L28612 25365
L28593 25421
L28556 25459
L28500 25478
L28462 25478
" />
<path d="M28968 25478
L28968 25271
L28950 25234
L28912 25215
L28837 25215
L28800 25234
" />
<path d="M28968 25459
L28931 25478
L28837 25478
L28800 25459
L28781 25421
L28781 25384
L28800 25346
L28837 25328
L28931 25328
L28968 25309
" />
<path d="M29324 25459
L29287 25478
L29212 25478
L29175 25459
L29156 25440
L29137 25403
L29137 25290
L29156 25253
L29175 25234
L29212 25215
L29287 25215
L29324 25234
" />
<path d="M29493 25478
L29493 25084
" />
<path d="M29531 25328
L29643 25478
" />
<path d="M29643 25215
L29493 25365
" />
<path d="M29793 25121
L29812 25103
L29849 25084
L29943 25084
L29981 25103
L29999 25121
L30018 25159
L30018 25196
L29999 25253
L29774 25478
L30018 25478
" />
<path d="M20112 25084
L20112 25365
L20093 25421
L20056 25459
L20000 25478
L19962 25478
" />
<path d="M20468 25478
L20468 25271
L20450 25234
L20412 25215
L20337 25215
L20300 25234
" />
<path d="M20468 25459
L20431 25478
L20337 25478
L20300 25459
L20281 25421
L20281 25384
L20300 25346
L20337 25328
L20431 25328
L20468 25309
" />
<path d="M20824 25459
L20787 25478
L20712 25478
L20675 25459
L20656 25440
L20637 25403
L20637 25290
L20656 25253
L20675 25234
L20712 25215
L20787 25215
L20824 25234
" />
<path d="M20993 25478
L20993 25084
" />
<path d="M21031 25328
L21143 25478
" />
<path d="M21143 25215
L20993 25365
" />
<path d="M21499 25084
L21312 25084
L21293 25271
L21312 25253
L21349 25234
L21443 25234
L21481 25253
L21499 25271
L21518 25309
L21518 25403
L21499 25440
L21481 25459
L21443 25478
L21349 25478
L21312 25459
L21293 25440
" />
<path d="M24525 48629
L24581 48648
L24675 48648
L24712 48629
L24731 48610
L24750 48573
L24750 48535
L24731 48498
L24712 48479
L24675 48460
L24600 48441
L24562 48423
L24543 48404
L24525 48366
L24525 48329
L24543 48291
L24562 48273
L24600 48254
L24693 48254
L24750 48273
" />
<path d="M24881 48254
L24975 48648
L25050 48366
L25124 48648
L25218 48254
" />
<path d="M25349 48291
L25368 48273
L25406 48254
L25499 48254
L25537 48273
L25556 48291
L25574 48329
L25574 48366
L25556 48423
L25331 48648
L25574 48648
" />
<path d="M26201 36498
L25808 36498
L25808 36405
L25826 36348
L25864 36311
L25901 36292
L25976 36273
L26032 36273
L26107 36292
L26145 36311
L26182 36348
L26201 36405
L26201 36498
" />
<path d="M26051 36105
L26051 35805
" />
<path d="M26201 35617
L25808 35617
L25808 35467
L25826 35430
L25845 35411
L25883 35392
L25939 35392
L25976 35411
L25995 35430
L26014 35467
L26014 35617
" />
<path d="M25995 35092
L26014 35036
L26032 35017
L26070 34999
L26126 34999
L26164 35017
L26182 35036
L26201 35074
L26201 35224
L25808 35224
L25808 35092
L25826 35055
L25845 35036
L25883 35017
L25920 35017
L25958 35036
L25976 35055
L25995 35092
L25995 35224
" />
<path d="M25808 34755
L25808 34717
L25826 34680
L25845 34661
L25883 34642
L25958 34624
L26051 34624
L26126 34642
L26164 34661
L26182 34680
L26201 34717
L26201 34755
L26182 34792
L26164 34811
L26126 34830
L26051 34849
L25958 34849
L25883 34830
L25845 34811
L25826 34792
L25808 34755
" />
<path d="M23228 37252
L23228 36859
L23378 36859
L23415 36877
L23434 36896
L23453 36934
L23453 36990
L23434 37027
L23415 37046
L23378 37065
L23228 37065
" />
<path d="M23697 36859
L23772 36859
L23809 36877
L23847 36915
L23865 36990
L23865 37121
L23847 37196
L23809 37234
L23772 37252
L23697 37252
L23659 37234
L23622 37196
L23603 37121
L23603 36990
L23622 36915
L23659 36877
L23697 36859
" />
<path d="M23978 36859
L24203 36859
" />
<path d="M24090 37252
L24090 36859
" />
<path d="M24540 37252
L24315 37252
" />
<path d="M24428 37252
L24428 36859
L24390 36915
L24353 36952
L24315 36971
" />
<path d="M24709 37102
L25009 37102
" />
<path d="M25196 37252
L25196 36859
L25328 37140
L25459 36859
L25459 37252
" />
<path d="M25628 37140
L25815 37140
" />
<path d="M25590 37252
L25721 36859
L25853 37252
" />
<path d="M25984 37252
L25984 36859
" />
<path d="M26171 37252
L26171 36859
L26396 37252
L26396 36859
" />
<path d="M26790 37252
L26565 37252
" />
<path d="M26677 37252
L26677 36859
L26640 36915
L26602 36952
L26565 36971
" />
<path d="M23373 34202
L23373 33808
L23523 33808
L23560 33827
L23579 33846
L23598 33883
L23598 33940
L23579 33977
L23560 33996
L23523 34015
L23373 34015
" />
<path d="M23841 33808
L23916 33808
L23954 33827
L23991 33865
L24010 33940
L24010 34071
L23991 34146
L23954 34183
L23916 34202
L23841 34202
L23804 34183
L23766 34146
L23748 34071
L23748 33940
L23766 33865
L23804 33827
L23841 33808
" />
<path d="M24123 33808
L24348 33808
" />
<path d="M24235 34202
L24235 33808
" />
<path d="M24985 34202
L24760 34202
" />
<path d="M24873 34202
L24873 33808
L24835 33865
L24798 33902
L24760 33921
" />
<path d="M25229 33808
L25266 33808
L25304 33827
L25323 33846
L25341 33883
L25360 33958
L25360 34052
L25341 34127
L25323 34165
L25304 34183
L25266 34202
L25229 34202
L25191 34183
L25173 34165
L25154 34127
L25135 34052
L25135 33958
L25154 33883
L25173 33846
L25191 33827
L25229 33808
" />
<path d="M25529 34202
L25529 33808
" />
<path d="M25754 34202
L25585 33977
" />
<path d="M25754 33808
L25529 34033
" />
<path d="M26279 34202
L26241 34183
L26222 34146
L26222 33808
" />
<path d="M26429 34202
L26429 33940
" />
<path d="M26429 33808
L26410 33827
L26429 33846
L26447 33827
L26429 33808
L26429 33846
" />
<path d="M26616 33940
L26616 34202
" />
<path d="M26616 33977
L26635 33958
L26672 33940
L26729 33940
L26766 33958
L26785 33996
L26785 34202
" />
<path d="M20367 42049
L20685 42049
L20723 42031
L20742 42012
L20760 41974
L20760 41899
L20742 41862
L20723 41843
L20685 41824
L20367 41824
" />
<path d="M20760 41431
L20760 41656
" />
<path d="M20760 41543
L20367 41543
L20423 41581
L20460 41618
L20479 41656
" />
<g >
</g>
</g>
<g style="fill:#000000; fill-opacity:0.0; 
stroke:#000000; stroke-width:59.0551; stroke-opacity:1; 
stroke-linecap:round; stroke-linejoin:round;">
</g>
<g style="fill:#C2C200; fill-opacity:0.0; 
stroke:#C2C200; stroke-width:59.0551; stroke-opacity:1; 
stroke-linecap:round; stroke-linejoin:round;">
</g>
<g style="fill:#C2C200; fill-opacity:0.0; 
stroke:#C2C200; stroke-width:39.3701; stroke-opacity:1; 
stroke-linecap:round; stroke-linejoin:round;">
<path d="M31125 23810
L31125 23810
" />
<path d="M31125 23810
L31125 23810
" />
<path d="M31125 52441
L31125 23810
" />
<path d="M30969 52433
L31125 52441
" />
<path d="M30844 52436
L30969 52433
" />
<path d="M30720 52446
L30844 52436
" />
<path d="M30598 52461
L30720 52446
" />
<path d="M30478 52481
L30598 52461
" />
<path d="M30243 52540
L30478 52481
" />
<path d="M30019 52619
L30243 52540
" />
<path d="M29805 52719
L30019 52619
" />
<path d="M29603 52837
L29805 52719
" />
<path d="M29415 52974
L29603 52837
" />
<path d="M29241 53126
L29415 52974
" />
<path d="M29082 53295
L29241 53126
" />
<path d="M28941 53477
L29082 53295
" />
<path d="M28817 53672
L28941 53477
" />
<path d="M28713 53879
L28817 53672
" />
<path d="M28630 54097
L28713 53879
" />
<path d="M28596 54210
L28630 54097
" />
<path d="M28568 54325
L28596 54210
" />
<path d="M28545 54441
L28568 54325
" />
<path d="M28529 54560
L28545 54441
" />
<path d="M28518 54681
L28529 54560
" />
<path d="M28514 54803
L28518 54681
" />
<path d="M21349 54803
L28514 54803
" />
<path d="M21342 54682
L21349 54803
" />
<path d="M21330 54563
L21342 54682
" />
<path d="M21312 54446
L21330 54563
" />
<path d="M21288 54331
L21312 54446
" />
<path d="M21223 54107
L21288 54331
" />
<path d="M21138 53893
L21223 54107
" />
<path d="M21032 53689
L21138 53893
" />
<path d="M20908 53497
L21032 53689
" />
<path d="M20766 53318
L20908 53497
" />
<path d="M20607 53153
L20766 53318
" />
<path d="M20434 53003
L20607 53153
" />
<path d="M20247 52870
L20434 53003
" />
<path d="M20046 52753
L20247 52870
" />
<path d="M19834 52656
L20046 52753
" />
<path d="M19612 52578
L19834 52656
" />
<path d="M19380 52521
L19612 52578
" />
<path d="M19141 52486
L19380 52521
" />
<path d="M19018 52477
L19141 52486
" />
<path d="M18894 52474
L19018 52477
" />
<path d="M18867 52475
L18894 52474
" />
<path d="M18867 23814
L18867 52475
" />
<path d="M18894 23816
L18867 23814
" />
<path d="M19020 23812
L18894 23816
" />
<path d="M19145 23803
L19020 23812
" />
<path d="M19268 23788
L19145 23803
" />
<path d="M19389 23767
L19268 23788
" />
<path d="M19508 23740
L19389 23767
" />
<path d="M19625 23708
L19508 23740
" />
<path d="M19850 23628
L19625 23708
" />
<path d="M20065 23527
L19850 23628
" />
<path d="M20268 23407
L20065 23527
" />
<path d="M20457 23270
L20268 23407
" />
<path d="M20631 23115
L20457 23270
" />
<path d="M20790 22945
L20631 23115
" />
<path d="M20931 22761
L20790 22945
" />
<path d="M21054 22564
L20931 22761
" />
<path d="M21158 22355
L21054 22564
" />
<path d="M21202 22246
L21158 22355
" />
<path d="M21240 22135
L21202 22246
" />
<path d="M21273 22022
L21240 22135
" />
<path d="M21301 21906
L21273 22022
" />
<path d="M21322 21788
L21301 21906
" />
<path d="M21338 21669
L21322 21788
" />
<path d="M21348 21547
L21338 21669
" />
<path d="M21351 21424
L21348 21547
" />
<path d="M21346 21286
L21351 21424
" />
<path d="M28520 21286
L21346 21286
" />
<path d="M28512 21424
L28520 21286
" />
<path d="M28516 21547
L28512 21424
" />
<path d="M28525 21669
L28516 21547
" />
<path d="M28541 21788
L28525 21669
" />
<path d="M28562 21906
L28541 21788
" />
<path d="M28590 22022
L28562 21906
" />
<path d="M28623 22135
L28590 22022
" />
<path d="M28662 22246
L28623 22135
" />
<path d="M28706 22355
L28662 22246
" />
<path d="M28809 22564
L28706 22355
" />
<path d="M28932 22761
L28809 22564
" />
<path d="M29073 22945
L28932 22761
" />
<path d="M29232 23115
L29073 22945
" />
<path d="M29406 23270
L29232 23115
" />
<path d="M29596 23407
L29406 23270
" />
<path d="M29798 23527
L29596 23407
" />
<path d="M30013 23628
L29798 23527
" />
<path d="M30239 23708
L30013 23628
" />
<path d="M30355 23740
L30239 23708
" />
<path d="M30474 23767
L30355 23740
" />
<path d="M30595 23788
L30474 23767
" />
<path d="M30718 23803
L30595 23788
" />
<path d="M30843 23812
L30718 23803
" />
<path d="M30969 23816
L30843 23812
" />
<path d="M31125 23810
L30969 23816
" />
<g >
</g>
<g >
</g>
<g >
</g>
<g >
</g>
<g >
</g>
<g >
</g>
<g >
</g>
<g >
</g>
<g >
</g>
<g >
</g>
<g >
</g>
<g >
</g>
<g >
</g>
<g >
</g>
<g >
</g>
<g >
</g>
<g >
</g>
<g >
</g>
<g >
</g>
<g >
</g>
<g >
</g>
<g >
</g>
<g >
</g>
<g >
</g>
<g >
</g>
<g >
</g>
<g >
</g>
</g> 
</svg>
